<svg xmlns="http://www.w3.org/2000/svg" width="37" height="38" viewBox="0 0 37 38" fill="none">
    <rect y="0.734009" width="37" height="37" rx="18.5" fill="#4C4C4C" />
    <path
        d="M12.5664 18.7278C12.5664 18.4627 12.7634 18.2437 13.0189 18.209L13.09 18.2042H23.5617C23.8509 18.2042 24.0853 18.4387 24.0853 18.7278C24.0853 18.9929 23.8883 19.212 23.6327 19.2466L23.5617 19.2514H13.09C12.8008 19.2514 12.5664 19.017 12.5664 18.7278Z"
        fill="white" />
    <path
        d="M18.9686 14.8926C18.7637 14.6886 18.763 14.3571 18.967 14.1521C19.1525 13.9659 19.4433 13.9483 19.6486 14.1L19.7075 14.1505L23.9311 18.356C24.1179 18.542 24.1349 18.8339 23.982 19.0392L23.9311 19.098L19.7075 23.3041C19.5026 23.5082 19.1711 23.5075 18.967 23.3026C18.7815 23.1163 18.7652 22.8254 18.9178 22.6208L18.9686 22.5621L22.8194 18.7268L18.9686 14.8926Z"
        fill="white" />
</svg>