<svg width="20" height="20" viewBox="0 0 20 20" fill="none" xmlns="http://www.w3.org/2000/svg">
<path d="M9.24996 18.9584H5.74996C2.49163 18.9584 1.04163 17.5084 1.04163 14.25V10.75C1.04163 7.49169 2.49163 6.04169 5.74996 6.04169H9.24996C12.5083 6.04169 13.9583 7.49169 13.9583 10.75V14.25C13.9583 17.5084 12.5083 18.9584 9.24996 18.9584ZM5.74996 7.29169C3.16663 7.29169 2.29163 8.16669 2.29163 10.75V14.25C2.29163 16.8334 3.16663 17.7084 5.74996 17.7084H9.24996C11.8333 17.7084 12.7083 16.8334 12.7083 14.25V10.75C12.7083 8.16669 11.8333 7.29169 9.24996 7.29169H5.74996Z" fill="#1F1F1F"/>
<path d="M14.25 13.9584H13.3333C12.9916 13.9584 12.7083 13.675 12.7083 13.3334V10.75C12.7083 8.16669 11.8333 7.29169 9.24996 7.29169H6.66663C6.32496 7.29169 6.04163 7.00835 6.04163 6.66669V5.75002C6.04163 2.49169 7.49163 1.04169 10.75 1.04169H14.25C17.5083 1.04169 18.9583 2.49169 18.9583 5.75002V9.25002C18.9583 12.5084 17.5083 13.9584 14.25 13.9584ZM13.9583 12.7084H14.25C16.8333 12.7084 17.7083 11.8334 17.7083 9.25002V5.75002C17.7083 3.16669 16.8333 2.29169 14.25 2.29169H10.75C8.16663 2.29169 7.29163 3.16669 7.29163 5.75002V6.04169H9.24996C12.5083 6.04169 13.9583 7.49169 13.9583 10.75V12.7084Z" fill="#1F1F1F"/>
</svg>
